<svg xmlns="http://www.w3.org/2000/svg" xmlns:xlink="http://www.w3.org/1999/xlink" version="1.1" width="1000" height="1000" viewBox="0 0 1000 1000" xml:space="preserve">
<desc>Created with Fabric.js 3.5.0</desc>
<defs>
</defs>
<rect x="0" y="0" width="100%" height="100%" fill="#ffffff"/>
<g transform="matrix(0.8538 0 0 0.8538 300.4547 427.8627)" id="131578">
<g style="" vector-effect="non-scaling-stroke">
		<g transform="matrix(1 0 0 1 0 0.61)" id="Calque_1-2">
<polygon style="stroke: none; stroke-width: 0; stroke-dasharray: none; stroke-linecap: butt; stroke-dashoffset: 0; stroke-linejoin: miter; stroke-miterlimit: 4; is-custom-font: none; font-file-url: none; fill: rgb(119,187,176); fill-rule: nonzero; opacity: 1;" points="-254.755,-101.6 -254.735,-96.95 -271.715,-96.93 -271.715,-91.2 -276.695,-91.22 -276.695,-86.5 -282.715,-86.47 -282.715,-76.09 -287.665,-76.06 -287.675,-64.8 -293.675,-64.77 -293.685,-28.81 -287.695,-28.81 -287.695,-23.16 -282.745,-23.13 -282.775,-18.42 -276.745,-18.42 -276.745,-12.76 -271.745,-12.76 -271.745,-7.99 -260.735,-7.99 -260.735,-2.36 -265.715,-2.36 -265.735,3.37 -271.715,3.38 -271.745,13.63 -276.745,13.6 -276.775,18.45 -282.715,18.45 -282.705,28.86 -287.695,28.85 -287.675,44.95 -293.685,44.95 -293.655,71.39 -298.665,71.4 -298.665,81.81 -293.675,81.81 -293.675,92.19 -287.705,92.09 -287.715,96.88 -282.725,96.88 -282.745,102.62 -276.695,102.6 -276.675,107.3 -176.795,107.33 -176.775,102.59 -171.815,102.59 -171.805,107.32 -138.845,107.32 -138.845,102.6 -132.815,102.6 -132.815,96.92 -127.855,96.92 -127.855,76.08 -110.905,76.08 -110.905,81.83 -104.905,81.86 -104.905,86.53 -99.885,86.56 -99.885,92.23 -93.925,92.21 -93.925,96.96 -88.905,96.93 -88.905,102.58 -82.935,102.58 -82.935,107.33 -10.955,107.33 -10.955,102.59 -6.035,102.62 -5.995,96.88 4.955,96.86 4.955,102.64 10.905,102.6 10.865,107.24 126.805,107.17 126.805,102.65 132.765,102.63 132.755,107.33 204.775,107.29 204.775,102.56 209.735,102.56 209.735,96.89 215.755,96.89 215.755,102.59 226.755,102.56 226.755,107.36 270.685,107.3 270.655,102.59 281.635,102.58 281.635,96.91 287.655,96.91 287.655,92.19 292.675,92.22 292.645,81.75 298.665,81.75 298.655,55.29 292.635,55.29 292.645,18.41 287.615,18.41 287.625,13.67 281.605,13.67 281.605,8.01 276.655,8.01 276.655,3.32 270.635,3.32 270.635,-2.37 265.665,-2.37 265.665,-8.05 254.625,-8.05 254.695,-12.89 198.755,-12.73 198.755,-18.41 193.685,-18.41 193.765,-23.13 187.685,-23.21 187.685,-33.69 182.695,-33.69 182.695,-49.76 187.775,-49.76 187.855,-54.33 193.765,-54.33 193.765,-64.81 198.755,-64.81 198.755,-70.64 204.835,-70.64 204.755,-80.88 198.675,-80.8 198.675,-91.36 193.765,-91.36 193.765,-97.03 182.775,-96.87 182.445,-101.6 126.515,-101.6 126.485,-96.95 121.845,-96.87 121.845,-101.71 82.655,-101.6 82.655,-97.06 76.905,-97.06 76.905,-91.16 71.785,-91.2 71.785,-96.95 65.875,-96.95 65.915,-101.78 49.935,-101.78 49.935,-107.36 26.965,-107.36 26.915,-101.69 4.945,-101.69 4.945,-96.92 -0.145,-96.92 -0.145,-91.29 -6.045,-91.29 -6.045,-86.43 -17.085,-86.43 -17.085,-91.25 -22.025,-91.25 -22.025,-96.92 -28.065,-96.87 -28.065,-101.6 -77.965,-101.6 -77.965,-96.92 -83.045,-96.92 -83.045,-80.85 -88.945,-80.8 -88.945,-86.47 -93.945,-86.52 -93.945,-91.25 -99.935,-91.2 -99.935,-96.96 -104.925,-96.96 -104.975,-101.74 -182.835,-101.6 -182.785,-97.01 -188.825,-97.01 -188.825,-76.08 -193.775,-76.08 -193.775,-80.85 -199.815,-80.85 -199.725,-86.52 -204.765,-86.52 -205.045,-89.31 -209.895,-89.45 -209.895,-94.17 -220.885,-94.04 -220.885,-101.74 -254.755,-101.6 "/>
</g>
		<g transform="matrix(1 0 0 1 -237.11 5.51)" id="Calque_1-2">
<polygon style="stroke: none; stroke-width: 0; stroke-dasharray: none; stroke-linecap: butt; stroke-dashoffset: 0; stroke-linejoin: miter; stroke-miterlimit: 4; is-custom-font: none; font-file-url: none; fill: rgb(111,89,162); fill-rule: nonzero; opacity: 1;" points="-41.435,-36.51 -41.435,-59.49 -34.795,-59.49 -34.795,-69.33 -29.025,-69.33 -29.475,-81.23 -16.615,-81.23 -17.065,-86.97 13.965,-86.97 13.965,-81.23 26.815,-81.64 26.375,-87.79 31.695,-87.38 32.135,-78.77 39.665,-77.13 40.115,-54.97 45.875,-54.15 46.755,-36.92 38.785,-37.33 39.665,-8.2 34.355,-8.2 33.905,3.28 27.255,4.92 27.255,14.77 21.945,14.77 21.945,19.69 11.595,20.44 11.745,25.85 6.875,26.67 6.875,32.41 2.435,32.82 2.435,42.26 -6.865,42.67 -6.425,53.33 44.545,54.15 44.545,86.97 -46.315,87.79 -46.755,82.05 -41.435,82.46 -41.435,58.67 -35.675,58.67 -35.675,43.08 -28.585,43.49 -29.475,32 -22.385,32 -22.385,25.85 -17.505,25.85 -17.065,14.36 -10.415,14.36 -10.415,9.03 -5.535,9.03 -5.095,3.08 2.435,3.08 1.555,-8.41 8.645,-8.41 8.205,-18.67 15.735,-19.49 14.405,-54.36 9.085,-54.36 7.315,-58.87 2.435,-58.87 1.995,-52.72 -8.195,-53.13 -8.645,-48.61 -16.615,-47.79 -16.175,-29.33 -36.115,-29.33 -35.675,-36.72 -41.435,-36.51 "/>
</g>
		<g transform="matrix(1 0 0 1 -238.66 -54.785)" id="Calque_1-2">
<polygon style="stroke: none; stroke-width: 0; stroke-dasharray: none; stroke-linecap: butt; stroke-dashoffset: 0; stroke-linejoin: miter; stroke-miterlimit: 4; is-custom-font: none; font-file-url: none; fill: rgb(130,54,140); fill-rule: nonzero; opacity: 1;" points="-31.185,31.765 -45.325,31.765 -45.325,2.725 -37.345,2.415 -37.345,-14.215 -31.545,-14.215 -31.545,-20.875 -22.115,-20.575 -22.485,-26.315 -9.425,-26.315 -9.425,-31.155 31.185,-31.765 31.185,-26.615 45.325,-26.315 45.325,-14.525 31.915,-14.825 31.545,-20.875 -3.625,-20.875 -3.625,-13.615 -15.595,-14.525 -15.595,-2.725 -23.205,-2.725 -23.205,8.775 -31.185,8.775 -31.185,31.765 "/>
</g>
		<g transform="matrix(1 0 0 1 -247.475 20.805)" id="Calque_1-2">
<polygon style="stroke: none; stroke-width: 0; stroke-dasharray: none; stroke-linecap: butt; stroke-dashoffset: 0; stroke-linejoin: miter; stroke-miterlimit: 4; is-custom-font: none; font-file-url: none; fill: rgb(130,54,140); fill-rule: nonzero; opacity: 1;" points="22.62,-71.995 22.28,-38.875 15.43,-38.585 15.77,-28.795 9.94,-28.795 9.26,-21.885 1.37,-21.885 1.72,-16.995 -3.77,-16.995 -3.77,-5.185 -10.62,-5.755 -10.28,0.865 -16.11,0.575 -16.11,12.095 -23.65,11.515 -23.65,21.885 -30.85,21.885 -30.51,39.745 -36.68,39.745 -36.68,72.715 -29.82,72.425 -29.82,66.955 -23.99,66.955 -24.34,44.785 -16.79,44.785 -17.14,28.655 -10.97,28.655 -11.31,17.135 -3.43,17.135 -3.77,11.085 2.06,10.515 2.06,-0.435 9.94,-0.145 9.26,-6.195 15.77,-5.905 15.08,-10.795 22.97,-10.515 22.28,-21.745 28.45,-22.035 28.11,-33.265 36.68,-32.975 36.34,-66.955 29.48,-67.535 29.14,-72.715 22.62,-71.995 "/>
</g>
		<g transform="matrix(1 0 0 1 -218.665 53.535)" id="Calque_1-2">
<polygon style="stroke: none; stroke-width: 0; stroke-dasharray: none; stroke-linecap: butt; stroke-dashoffset: 0; stroke-linejoin: miter; stroke-miterlimit: 4; is-custom-font: none; font-file-url: none; fill: rgb(130,54,140); fill-rule: nonzero; opacity: 1;" points="-26.29,-6.865 -26.87,7.555 26.87,7.555 25.12,-7.555 -26.29,-6.865 "/>
</g>
		<g transform="matrix(1 0 0 1 -140.225 -39.495)" id="Calque_1-2">
<polygon style="stroke: none; stroke-width: 0; stroke-dasharray: none; stroke-linecap: butt; stroke-dashoffset: 0; stroke-linejoin: miter; stroke-miterlimit: 4; is-custom-font: none; font-file-url: none; fill: rgb(111,89,162); fill-rule: nonzero; opacity: 1;" points="18.69,0.005 35.66,0.005 36.18,27.645 29.49,27.645 30.01,35.465 19.03,34.425 19.2,37.035 19.37,39.635 -36.53,39.635 -37.21,-38.245 36.18,-39.635 37.21,-23.985 28.98,-23.465 29.49,-10.945 18.42,-9.205 18.69,0.005 "/>
</g>
		<g transform="matrix(1 0 0 1 -143.395 -57.485)" id="Calque_1-2">
<polygon style="stroke: none; stroke-width: 0; stroke-dasharray: none; stroke-linecap: butt; stroke-dashoffset: 0; stroke-linejoin: miter; stroke-miterlimit: 4; is-custom-font: none; font-file-url: none; fill: rgb(119,187,176); fill-rule: nonzero; opacity: 1;" points="-14.66,-8.605 -14.15,8.085 14.66,8.605 13.63,-7.035 -14.66,-8.605 "/>
</g>
		<g transform="matrix(1 0 0 1 -142.115 -21.495)" id="Calque_1-2">
<polygon style="stroke: none; stroke-width: 0; stroke-dasharray: none; stroke-linecap: butt; stroke-dashoffset: 0; stroke-linejoin: miter; stroke-miterlimit: 4; is-custom-font: none; font-file-url: none; fill: rgb(119,187,176); fill-rule: nonzero; opacity: 1;" points="-13.37,-6.525 -13.89,11.735 13.89,11.205 13.89,-11.735 -13.37,-6.525 "/>
</g>
		<g transform="matrix(1 0 0 1 -143.265 -58.01)" id="Calque_1-2">
<polygon style="stroke: none; stroke-width: 0; stroke-dasharray: none; stroke-linecap: butt; stroke-dashoffset: 0; stroke-linejoin: miter; stroke-miterlimit: 4; is-custom-font: none; font-file-url: none; fill: rgb(130,54,140); fill-rule: nonzero; opacity: 1;" points="5.04,-10.17 3.72,-1.91 -2.96,-1.31 -3.56,6.4 -15.04,6.4 -14.28,10.17 15.04,9.57 14.01,-7.35 5.04,-10.17 "/>
</g>
		<g transform="matrix(1 0 0 1 -142.435 -21.66)" id="Calque_1-2">
<polygon style="stroke: none; stroke-width: 0; stroke-dasharray: none; stroke-linecap: butt; stroke-dashoffset: 0; stroke-linejoin: miter; stroke-miterlimit: 4; is-custom-font: none; font-file-url: none; fill: rgb(130,54,140); fill-rule: nonzero; opacity: 1;" points="-15.04,6 -13.76,12.78 15.04,12.78 15.04,-12.26 9.9,-12.78 10.84,-3.04 -0.39,-1.3 -1.58,6 -15.04,6 "/>
</g>
		<g transform="matrix(1 0 0 1 -141.99 -43.215)" id="Calque_1-2">
<polygon style="stroke: none; stroke-width: 0; stroke-dasharray: none; stroke-linecap: butt; stroke-dashoffset: 0; stroke-linejoin: miter; stroke-miterlimit: 4; is-custom-font: none; font-file-url: none; fill: rgb(130,54,140); fill-rule: nonzero; opacity: 1;" points="39.095,-32.615 38.685,-38.185 34.615,-35.935 34.155,-43.755 -38.685,-42.555 -39.095,42.565 -28.815,43.755 -27.985,-33.805 39.095,-32.615 "/>
</g>
		<g transform="matrix(1 0 0 1 -113.17 -45.115)" id="Calque_1-2">
<polygon style="stroke: none; stroke-width: 0; stroke-dasharray: none; stroke-linecap: butt; stroke-dashoffset: 0; stroke-linejoin: miter; stroke-miterlimit: 4; is-custom-font: none; font-file-url: none; fill: rgb(130,54,140); fill-rule: nonzero; opacity: 1;" points="1.565,-5.835 -9.635,-7.365 -9.185,6.855 9.185,7.365 9.635,1.265 3.355,1.265 1.565,-5.835 "/>
</g>
		<g transform="matrix(1 0 0 1 -49.3 -38.16)" id="Calque_1-2">
<polygon style="stroke: none; stroke-width: 0; stroke-dasharray: none; stroke-linecap: butt; stroke-dashoffset: 0; stroke-linejoin: miter; stroke-miterlimit: 4; is-custom-font: none; font-file-url: none; fill: rgb(111,89,162); fill-rule: nonzero; opacity: 1;" points="-14.615,-40.86 -14.615,-29.01 -19.695,-29.01 -19.695,-17.15 -25.625,-17.15 -25.625,-0.63 -32.395,-0.21 -31.545,17.57 -37.475,18 -37.055,29.01 -42.985,29.85 -43.825,40.02 -21.385,40.86 -21.085,22.7 12.495,22.66 13.335,28.58 20.535,28.58 20.535,40.02 43.825,40.02 43.405,24.77 39.165,24.77 38.325,6.56 33.245,6.14 32.395,-5.72 24.685,-6.11 25.585,-23.05 20.445,-23.35 20.145,-40.29 -14.615,-40.86 "/>
</g>
		<g transform="matrix(1 0 0 1 -51.185 -50.685)" id="Calque_1-2">
<polygon style="stroke: none; stroke-width: 0; stroke-dasharray: none; stroke-linecap: butt; stroke-dashoffset: 0; stroke-linejoin: miter; stroke-miterlimit: 4; is-custom-font: none; font-file-url: none; fill: rgb(119,187,176); fill-rule: nonzero; opacity: 1;" points="-4.41,-8.735 -4.41,8.735 4.41,8.735 3.99,-8.555 -4.41,-8.735 "/>
</g>
		<g transform="matrix(1 0 0 1 -46.95 -48.655)" id="Calque_1-2">
<polygon style="stroke: none; stroke-width: 0; stroke-dasharray: none; stroke-linecap: butt; stroke-dashoffset: 0; stroke-linejoin: miter; stroke-miterlimit: 4; is-custom-font: none; font-file-url: none; fill: rgb(130,54,140); fill-rule: nonzero; opacity: 1;" points="-6.175,-10.235 -6.525,-15.525 0.525,-15.885 0.175,-21.525 4.765,-21.175 5.465,-5.295 11.465,-4.235 12.175,21.525 -11.825,21.525 -12.175,7.055 0.525,6.355 -0.535,-10.935 -6.175,-10.235 "/>
</g>
		<g transform="matrix(1 0 0 1 -63.63 -44.165)" id="Calque_1-2">
<polygon style="stroke: none; stroke-width: 0; stroke-dasharray: none; stroke-linecap: butt; stroke-dashoffset: 0; stroke-linejoin: miter; stroke-miterlimit: 4; is-custom-font: none; font-file-url: none; fill: rgb(130,54,140); fill-rule: nonzero; opacity: 1;" points="34.935,-33.085 34.405,-46.115 -5.295,-46.115 -5.295,-28.925 -11.645,-29.445 -11.115,-16.935 -17.465,-16.935 -17.465,0.785 -23.285,0.255 -22.755,19.015 -30.165,19.015 -30.165,28.915 -34.405,29.435 -34.935,45.595 -22.755,46.115 -23.285,34.125 -17.465,34.125 -17.465,23.705 -12.705,23.185 -12.175,5.995 -6.875,5.475 -5.295,-10.685 -1.585,-10.685 -0.525,-22.145 5.825,-22.665 5.825,-34.135 34.935,-33.085 "/>
</g>
		<g transform="matrix(1 0 0 1 -33.01 -8.355)" id="Calque_1-2">
<polygon style="stroke: none; stroke-width: 0; stroke-dasharray: none; stroke-linecap: butt; stroke-dashoffset: 0; stroke-linejoin: miter; stroke-miterlimit: 4; is-custom-font: none; font-file-url: none; fill: rgb(130,54,140); fill-rule: nonzero; opacity: 1;" points="-5.345,-10.515 -5.645,10.085 5.645,10.515 5.295,-1.055 -0.355,-1.055 -1.065,-8.765 -5.345,-10.515 "/>
</g>
		<g transform="matrix(1 0 0 1 43.455 -43.51)" id="Calque_1-2">
<polygon style="stroke: none; stroke-width: 0; stroke-dasharray: none; stroke-linecap: butt; stroke-dashoffset: 0; stroke-linejoin: miter; stroke-miterlimit: 4; is-custom-font: none; font-file-url: none; fill: rgb(111,89,162); fill-rule: nonzero; opacity: 1;" points="31.85,-15.54 31.26,-21.35 37.45,-21.66 36.86,-32.65 25.95,-33.28 25.36,-37.99 8.26,-38.3 7.96,-45.21 -8.85,-45.21 -8.55,-38.93 -26.25,-38.93 -25.95,-33.28 -30.96,-32.96 -30.67,-20.72 -37.45,-20.72 -37.45,21.03 -31.26,21.03 -31.55,39.24 -25.19,39.21 -25.07,45.21 20.35,45.21 20.05,40.5 25.07,40.18 24.77,33.28 32.44,33.9 31.85,27.63 36.27,28.25 36.86,16.64 20.35,16.32 20.35,22.29 14.45,21.98 14.45,29.2 -13.27,28.88 -14.15,3.14 -19.76,3.14 -19.76,-8.79 -15.33,-9.1 -14.15,-21.03 -7.96,-21.35 -7.96,-27 2.06,-27.31 2.06,-21.66 7.37,-21.03 7.67,-26.06 15.33,-26.06 15.92,-21.03 20.05,-21.03 20.35,-15.38 31.85,-15.54 "/>
</g>
		<g transform="matrix(1 0 0 1 35.13 -48.86)" id="Calque_1-2">
<polygon style="stroke: none; stroke-width: 0; stroke-dasharray: none; stroke-linecap: butt; stroke-dashoffset: 0; stroke-linejoin: miter; stroke-miterlimit: 4; is-custom-font: none; font-file-url: none; fill: rgb(130,54,140); fill-rule: nonzero; opacity: 1;" points="38.345,-26.7 38.345,-38.07 27.395,-38.37 27.395,-42.56 -21.765,-43.46 -21.485,-36.88 -27.385,-38.07 -27.385,-31.19 -32.445,-32.09 -32.725,-26.1 -38.345,-26.1 -38.065,24.61 -32.165,25.21 -31.885,36.58 -27.105,37.18 -26.545,43.46 -21.485,43.46 -22.055,26.41 -27.665,26.11 -27.665,-15.18 -21.205,-14.88 -21.485,-27.15 -17.555,-26.85 -17.275,-32.24 0.425,-31.94 0.145,-38.82 15.875,-38.52 15.595,-32.54 32.725,-31.64 33.005,-25.95 38.345,-26.7 "/>
</g>
		<g transform="matrix(1 0 0 1 53.935 -22.95)" id="Calque_1-2">
<polygon style="stroke: none; stroke-width: 0; stroke-dasharray: none; stroke-linecap: butt; stroke-dashoffset: 0; stroke-linejoin: miter; stroke-miterlimit: 4; is-custom-font: none; font-file-url: none; fill: rgb(130,54,140); fill-rule: nonzero; opacity: 1;" points="-26.47,1.07 -7.55,1.52 -7.85,-5.4 -1.28,-5.4 -1.28,-11.49 21.4,-10.94 21.4,-6.23 26.17,-5.68 26.47,1.52 10.36,0.97 10.65,5.12 4.39,5.4 4.69,11.22 -24.56,11.49 -26.47,1.07 "/>
</g>
		<g transform="matrix(1 0 0 1 59.555 -65.39)" id="Calque_1-2">
<polygon style="stroke: none; stroke-width: 0; stroke-dasharray: none; stroke-linecap: butt; stroke-dashoffset: 0; stroke-linejoin: miter; stroke-miterlimit: 4; is-custom-font: none; font-file-url: none; fill: rgb(130,54,140); fill-rule: nonzero; opacity: 1;" points="-5.37,-5.8 -5.12,6.16 5.37,6.51 5.37,0.18 0.38,0.18 -0.12,-6.51 -5.37,-5.8 "/>
</g>
		<g transform="matrix(1 0 0 1 127.22 -38.305)" id="Calque_1-2">
<rect style="stroke: none; stroke-width: 0; stroke-dasharray: none; stroke-linecap: butt; stroke-dashoffset: 0; stroke-linejoin: miter; stroke-miterlimit: 4; is-custom-font: none; font-file-url: none; fill: none; fill-rule: nonzero; opacity: 1;" x="-65.945" y="-69.665" rx="0" ry="0" width="131.89" height="139.33"/>
</g>
		<g transform="matrix(1 0 0 1 140.37 -41.56)" id="Calque_1-2">
<polygon style="stroke: none; stroke-width: 0; stroke-dasharray: none; stroke-linecap: butt; stroke-dashoffset: 0; stroke-linejoin: miter; stroke-miterlimit: 4; is-custom-font: none; font-file-url: none; fill: rgb(111,89,162); fill-rule: nonzero; opacity: 1;" points="-40.835,-42.05 -40.565,42.05 -20.285,42.05 -20.285,18.69 -15.475,18.07 -15.745,12.15 -9.875,12.15 -10.945,0.31 -4.005,0 -4.005,6.54 -0.265,6.23 -0.535,18.38 5.605,18.38 5.875,24.61 9.605,24.92 10.145,40.81 40.835,41.43 40.835,36.76 36.755,38.54 36.295,24.3 30.425,24.92 30.955,13.08 25.355,12.77 25.355,5.92 19.485,6.23 20.285,-6.23 16.275,-5.61 16.015,-12.15 9.875,-12.15 9.875,-18.07 15.745,-18.07 16.015,-23.99 20.815,-24.3 20.815,-30.22 25.885,-30.22 25.885,-35.82 31.495,-36.45 30.955,-41.74 5.605,-41.43 5.605,-36.14 0.805,-35.82 1.335,-29.91 -4.005,-29.59 -4.005,-23.05 -9.345,-23.68 -9.605,-11.53 -20.285,-11.53 -20.555,-41.12 -40.835,-42.05 "/>
</g>
		<g transform="matrix(1 0 0 1 108.155 -45.345)" id="Calque_1-2">
<polygon style="stroke: none; stroke-width: 0; stroke-dasharray: none; stroke-linecap: butt; stroke-dashoffset: 0; stroke-linejoin: miter; stroke-miterlimit: 4; is-custom-font: none; font-file-url: none; fill: rgb(130,54,140); fill-rule: nonzero; opacity: 1;" points="13.47,-35.035 12.83,-45.575 -12.82,-45.575 -13.47,45.575 -7.47,45.575 -6.67,-36.015 13.47,-35.035 "/>
</g>
		<g transform="matrix(1 0 0 1 151.685 -70.26)" id="Calque_1-2">
<polygon style="stroke: none; stroke-width: 0; stroke-dasharray: none; stroke-linecap: butt; stroke-dashoffset: 0; stroke-linejoin: miter; stroke-miterlimit: 4; is-custom-font: none; font-file-url: none; fill: rgb(130,54,140); fill-rule: nonzero; opacity: 1;" points="-32,3.2 -31.87,20.65 -20.7,20.65 -20.96,8.52 -14.39,8.52 -14.26,2.93 -8.74,2.93 -9,-3.34 -2.56,-3.48 -2.95,-8.93 31.87,-8.79 32,-20.37 -8.74,-20.65 -8.74,-15.47 -14.39,-15.33 -14.26,-8.65 -20.96,-8.65 -20.83,-2.79 -26.87,-3.07 -26.87,3.61 -32,3.2 "/>
</g>
		<g transform="matrix(1 0 0 1 142.43 -21.72)" id="Calque_1-2">
<path style="stroke: none; stroke-width: 0; stroke-dasharray: none; stroke-linecap: butt; stroke-dashoffset: 0; stroke-linejoin: miter; stroke-miterlimit: 4; is-custom-font: none; font-file-url: none; fill: rgb(130,54,140); fill-rule: nonzero; opacity: 1;" transform=" translate(-441.095, -86.25)" d="M 427.64 64.93 v 13.57 l 7.91 -0.24 v 11.87 h 5.54 v 11.87 l 7.39 0.48 v 5.09 h 6.07 l -0.26 -17.2 l -6.07 -0.48 l -0.26 -6.06 h -6.6 v -12.11 h -6.33 v -6.54 l -7.39 -0.24 Z" stroke-linecap="round"/>
</g>
		<g transform="matrix(1 0 0 1 -137.05 53.975)" id="Calque_1-2">
<polygon style="stroke: none; stroke-width: 0; stroke-dasharray: none; stroke-linecap: butt; stroke-dashoffset: 0; stroke-linejoin: miter; stroke-miterlimit: 4; is-custom-font: none; font-file-url: none; fill: rgb(111,89,162); fill-rule: nonzero; opacity: 1;" points="-33.955,-40.145 -34.175,40.145 -11.545,40.145 -11.545,11.915 10.635,12.145 10.635,6.135 22.065,5.905 21.405,-0.045 28.465,0.585 28.465,-10.985 34.175,-10.985 33.495,-29.035 28.465,-29.265 28.005,-35.055 17.265,-34.815 17.035,-39.675 -33.955,-40.145 "/>
</g>
		<g transform="matrix(1 0 0 1 -146.09 49.28)" id="Calque_1-2">
<polygon style="stroke: none; stroke-width: 0; stroke-dasharray: none; stroke-linecap: butt; stroke-dashoffset: 0; stroke-linejoin: miter; stroke-miterlimit: 4; is-custom-font: none; font-file-url: none; fill: rgb(130,54,140); fill-rule: nonzero; opacity: 1;" points="35.025,-27.77 35.285,-32.84 29.525,-32.84 29.525,-38.9 18.375,-38.8 18.375,-43.77 -35.185,-43.77 -35.285,43.77 -24.335,43.77 -24.435,-32.84 24.435,-32.74 24.435,-27.57 35.025,-27.77 "/>
</g>
		<g transform="matrix(1 0 0 1 -139.77 36.14)" id="Calque_1-2">
<rect style="stroke: none; stroke-width: 0; stroke-dasharray: none; stroke-linecap: butt; stroke-dashoffset: 0; stroke-linejoin: miter; stroke-miterlimit: 4; is-custom-font: none; font-file-url: none; fill: rgb(119,187,176); fill-rule: nonzero; opacity: 1;" x="-5.585" y="-2.98" rx="0" ry="0" width="11.17" height="5.96"/>
</g>
		<g transform="matrix(1 0 0 1 -137.29 39.24)" id="Calque_1-2">
<polygon style="stroke: none; stroke-width: 0; stroke-dasharray: none; stroke-linecap: butt; stroke-dashoffset: 0; stroke-linejoin: miter; stroke-miterlimit: 4; is-custom-font: none; font-file-url: none; fill: rgb(130,54,140); fill-rule: nonzero; opacity: 1;" points="-8.225,5.46 -13.275,5.46 -13.115,10.93 8.065,11.1 8.065,5.96 13.275,5.96 13.275,-5.96 8.225,-5.96 8.065,-11.1 2.365,-10.77 2.525,-0.17 -8.285,-0.29 -8.225,5.46 "/>
</g>
		<g transform="matrix(1 0 0 1 -71.155 57.62)" id="Calque_1-2">
<polygon style="stroke: none; stroke-width: 0; stroke-dasharray: none; stroke-linecap: butt; stroke-dashoffset: 0; stroke-linejoin: miter; stroke-miterlimit: 4; is-custom-font: none; font-file-url: none; fill: rgb(111,89,162); fill-rule: nonzero; opacity: 1;" points="11.76,-38.6 -11.76,-38.6 -12.2,38.21 12.2,38.6 11.76,-38.6 "/>
</g>
		<g transform="matrix(1 0 0 1 -75.755 51.62)" id="Calque_1-2">
<polygon style="stroke: none; stroke-width: 0; stroke-dasharray: none; stroke-linecap: butt; stroke-dashoffset: 0; stroke-linejoin: miter; stroke-miterlimit: 4; is-custom-font: none; font-file-url: none; fill: rgb(130,54,140); fill-rule: nonzero; opacity: 1;" points="16.6,-32.6 -5.4,-32.6 -5,44.6 -16.6,44.6 -16.6,-44.6 16.6,-44.6 16.6,-32.6 "/>
</g>
		<g transform="matrix(1 0 0 1 -29.74 51.355)" id="Calque_1-2">
<polyline style="stroke: none; stroke-width: 0; stroke-dasharray: none; stroke-linecap: butt; stroke-dashoffset: 0; stroke-linejoin: miter; stroke-miterlimit: 4; is-custom-font: none; font-file-url: none; fill: rgb(130,54,140); fill-rule: nonzero; opacity: 1;" points="-18.925,-44.745 -18.925,-32.095 -13.925,-32.345 -13.675,-27.345 -7.925,-27.345 -7.925,-16.595 -2.925,-16.345 -2.675,-10.345 2.825,-10.345 3.325,11.905 -3.175,11.655 -3.175,18.155 -7.925,17.655 -7.925,28.655 -14.175,28.655 -14.175,33.655 -18.925,33.655 -19.075,44.805 -7.995,44.805 -7.995,39.575 -2.925,39.425 -2.765,33.425 3.075,33.575 3.075,22.655 7.845,22.655 7.845,17.575 14.005,17.575 14.155,6.805 19.075,6.805 18.925,0.495 14.005,0.655 13.845,-4.575 8.155,-4.425 8.155,-16.115 2.925,-16.115 2.845,-21.345 -2.995,-21.345 -2.845,-32.345 19.005,-32.345 18.845,-38.655 13.925,-38.655 13.775,-44.805 "/>
</g>
		<g transform="matrix(1 0 0 1 4.59 81.48)" id="Calque_1-2">
<polygon style="stroke: none; stroke-width: 0; stroke-dasharray: none; stroke-linecap: butt; stroke-dashoffset: 0; stroke-linejoin: miter; stroke-miterlimit: 4; is-custom-font: none; font-file-url: none; fill: rgb(130,54,140); fill-rule: nonzero; opacity: 1;" points="-11.005,-12.83 -11.335,-2.5 -5.005,-2.17 -5.005,2.5 -0.005,2.83 -0.335,13.5 11.335,13.5 11.335,2.83 6.335,2.83 5.665,-2.17 0.995,-2.5 0.335,-13.5 -11.005,-12.83 "/>
</g>
		<g transform="matrix(1 0 0 1 19.115 27.48)" id="Calque_1-2">
<polygon style="stroke: none; stroke-width: 0; stroke-dasharray: none; stroke-linecap: butt; stroke-dashoffset: 0; stroke-linejoin: miter; stroke-miterlimit: 4; is-custom-font: none; font-file-url: none; fill: rgb(130,54,140); fill-rule: nonzero; opacity: 1;" points="-26.08,3.28 -26.08,15.28 -19.17,15.28 -19.17,21.47 -14.34,21.83 -13.99,8.01 -8.46,8.01 -8.12,-2.55 -3.63,-2.55 -3.63,-8.37 19.52,-8.37 20.4,-16.22 25.74,-15.65 26.08,-21.83 -15.03,-21.1 -15.03,-9.46 -19.52,-9.1 -19.52,-2.18 -19.17,2.18 -26.08,3.28 "/>
</g>
		<g transform="matrix(1 0 0 1 2.63 57.505)" id="Calque_1-2">
<polygon style="stroke: none; stroke-width: 0; stroke-dasharray: none; stroke-linecap: butt; stroke-dashoffset: 0; stroke-linejoin: miter; stroke-miterlimit: 4; is-custom-font: none; font-file-url: none; fill: rgb(111,89,162); fill-rule: nonzero; opacity: 1;" points="-36.165,-38.715 -36.495,-27.715 -30.625,-27.385 -30.305,-22.055 -25.415,-22.385 -25.415,-10.385 -20.205,-10.385 -20.205,-5.055 -14.335,-5.055 -14.335,0.615 -19.545,0.615 -19.225,11.945 -25.415,11.945 -25.415,15.945 -30.305,15.945 -30.305,27.285 -36.165,27.285 -36.165,32.945 -40.405,32.945 -40.405,38.945 -18.895,38.945 -19.545,33.615 -14.335,33.615 -14.335,27.945 -8.795,27.945 -8.145,22.285 -8.255,11.725 1.955,11.725 1.955,22.835 7.825,22.835 7.825,28.175 13.255,28.175 13.035,38.615 40.405,38.395 40.405,33.505 34.535,33.505 34.535,22.835 29.755,22.615 29.755,16.395 23.675,16.395 23.675,5.285 18.685,5.285 18.895,0.835 13.255,0.615 13.255,-5.605 18.685,-5.605 19.115,-16.495 23.895,-16.495 23.895,-27.165 29.545,-27.165 29.755,-33.385 34.535,-33.605 34.425,-38.495 13.145,-38.945 12.925,-33.165 8.585,-33.165 8.365,-22.715 2.065,-22.715 2.065,-10.275 -2.285,-10.275 -2.495,-16.275 -8.575,-16.275 -8.575,-38.275 -36.165,-38.715 "/>
</g>
		<g transform="matrix(1 0 0 1 86.95 51.64)" id="Calque_1-2">
<polygon style="stroke: none; stroke-width: 0; stroke-dasharray: none; stroke-linecap: butt; stroke-dashoffset: 0; stroke-linejoin: miter; stroke-miterlimit: 4; is-custom-font: none; font-file-url: none; fill: rgb(130,54,140); fill-rule: nonzero; opacity: 1;" points="35.405,-44.2 35.405,-32.6 -24.455,-32.6 -24.455,44.2 -35.405,43.8 -35.045,-43.8 35.405,-44.2 "/>
</g>
		<g transform="matrix(1 0 0 1 91.755 56.865)" id="Calque_1-2">
<polygon style="stroke: none; stroke-width: 0; stroke-dasharray: none; stroke-linecap: butt; stroke-dashoffset: 0; stroke-linejoin: miter; stroke-miterlimit: 4; is-custom-font: none; font-file-url: none; fill: rgb(111,89,162); fill-rule: nonzero; opacity: 1;" points="30.51,-38.915 -31.3,-39.375 -31.54,39.375 31.54,39.375 31.3,27.945 -10.67,27.435 -10.43,5.585 26.15,5.335 26.38,-5.585 -10.2,-5.845 -9.96,-27.945 31.07,-27.945 30.51,-38.915 "/>
</g>
		<g transform="matrix(1 0 0 1 99.495 47.115)" id="Calque_1-2">
<polygon style="stroke: none; stroke-width: 0; stroke-dasharray: none; stroke-linecap: butt; stroke-dashoffset: 0; stroke-linejoin: miter; stroke-miterlimit: 4; is-custom-font: none; font-file-url: none; fill: rgb(130,54,140); fill-rule: nonzero; opacity: 1;" points="-18.41,-5.625 -18.17,5.625 18.41,5.375 18.41,-5.625 -18.41,-5.625 "/>
</g>
		<g transform="matrix(1 0 0 1 101.605 79.865)" id="Calque_1-2">
<polygon style="stroke: none; stroke-width: 0; stroke-dasharray: none; stroke-linecap: butt; stroke-dashoffset: 0; stroke-linejoin: miter; stroke-miterlimit: 4; is-custom-font: none; font-file-url: none; fill: rgb(130,54,140); fill-rule: nonzero; opacity: 1;" points="-21.22,-5.625 -20.95,5.625 21.22,5.375 21.22,-5.625 -21.22,-5.625 "/>
</g>
		<g transform="matrix(1 0 0 1 168.835 58.025)" id="Calque_1-2">
<polygon style="stroke: none; stroke-width: 0; stroke-dasharray: none; stroke-linecap: butt; stroke-dashoffset: 0; stroke-linejoin: miter; stroke-miterlimit: 4; is-custom-font: none; font-file-url: none; fill: rgb(111,89,162); fill-rule: nonzero; opacity: 1;" points="-32.18,-39.365 -8.97,-39.445 -8.59,22.475 32.42,22.475 32.5,39.445 -32.5,38.945 -32.18,-39.365 "/>
</g>
		<g transform="matrix(1 0 0 1 146.65 53.005)" id="Calque_1-2">
<polygon style="stroke: none; stroke-width: 0; stroke-dasharray: none; stroke-linecap: butt; stroke-dashoffset: 0; stroke-linejoin: miter; stroke-miterlimit: 4; is-custom-font: none; font-file-url: none; fill: rgb(130,54,140); fill-rule: nonzero; opacity: 1;" points="13.175,-33.175 -7.835,-33.175 -7.835,44.575 -13.545,44.615 -13.395,-44.615 13.545,-44.615 13.175,-33.175 "/>
</g>
		<g transform="matrix(1 0 0 1 180.915 77.865)" id="Calque_1-2">
<polygon style="stroke: none; stroke-width: 0; stroke-dasharray: none; stroke-linecap: butt; stroke-dashoffset: 0; stroke-linejoin: miter; stroke-miterlimit: 4; is-custom-font: none; font-file-url: none; fill: rgb(130,54,140); fill-rule: nonzero; opacity: 1;" points="20.31,3.385 -20.31,3.195 -20.31,-3.195 20.08,-3.385 20.31,3.385 "/>
</g>
		<g transform="matrix(1 0 0 1 239.97 29.845)" id="Calque_1-2">
<polygon style="stroke: none; stroke-width: 0; stroke-dasharray: none; stroke-linecap: butt; stroke-dashoffset: 0; stroke-linejoin: miter; stroke-miterlimit: 4; is-custom-font: none; font-file-url: none; fill: rgb(130,54,140); fill-rule: nonzero; opacity: 1;" points="34.755,-6.375 34.485,-10.855 30.365,-10.865 29.835,-18.345 24.345,-18.355 24.355,-23.445 -18.475,-23.235 -18.485,-18.455 -23.145,-18.465 -23.165,-11.285 -29.475,-11.295 -29.225,-0.235 -34.715,-0.245 -34.755,17.995 -28.985,18.015 -29.275,23.395 -18.155,23.445 -17.985,18.035 -22.785,18.195 -22.765,5.465 -18.115,5.475 -17.935,-6.035 -7.685,-5.845 -7.675,-11.425 23.875,-11.355 23.865,-5.945 34.755,-6.375 "/>
</g>
		<g transform="matrix(1 0 0 1 257.555 44.035)" id="Calque_1-2">
<polygon style="stroke: none; stroke-width: 0; stroke-dasharray: none; stroke-linecap: butt; stroke-dashoffset: 0; stroke-linejoin: miter; stroke-miterlimit: 4; is-custom-font: none; font-file-url: none; fill: rgb(130,54,140); fill-rule: nonzero; opacity: 1;" points="-8.62,-14.255 -8.62,-9.285 -25,-9.415 -25,-3.135 -19.12,-3.135 -19.12,3.275 2.75,3.405 2.75,8.635 13.75,8.505 13.75,14.785 25,14.785 25,8.245 18.75,8.245 18.88,3.405 13.88,3.275 13.88,-2.875 2.75,-3.135 2.88,-14.785 -8.62,-14.255 "/>
</g>
		<g transform="matrix(1 0 0 1 220.71 78.885)" id="Calque_1-2">
<polygon style="stroke: none; stroke-width: 0; stroke-dasharray: none; stroke-linecap: butt; stroke-dashoffset: 0; stroke-linejoin: miter; stroke-miterlimit: 4; is-custom-font: none; font-file-url: none; fill: rgb(130,54,140); fill-rule: nonzero; opacity: 1;" points="14.065,-3.555 14.065,-14.585 -13.935,-14.725 -14.065,8.305 -7.935,8.445 -8.065,14.585 2.995,14.725 3.265,8.585 -1.405,8.445 -1.805,-2.585 14.065,-3.555 "/>
</g>
		<g transform="matrix(1 0 0 1 256.845 72.89)" id="Calque_1-2">
<polygon style="stroke: none; stroke-width: 0; stroke-dasharray: none; stroke-linecap: butt; stroke-dashoffset: 0; stroke-linejoin: miter; stroke-miterlimit: 4; is-custom-font: none; font-file-url: none; fill: rgb(130,54,140); fill-rule: nonzero; opacity: 1;" points="-16.47,-3.07 -16.33,3.07 -10.47,3.07 -10.47,8.37 11.53,8.51 11.4,3.49 16.2,3.21 16.47,-2.93 11.67,-3.07 11.4,-8.23 5.53,-8.51 5.67,-2.37 -16.47,-3.07 "/>
</g>
		<g transform="matrix(1 0 0 1 249.145 61.3)" id="Calque_1-2">
<polygon style="stroke: none; stroke-width: 0; stroke-dasharray: none; stroke-linecap: butt; stroke-dashoffset: 0; stroke-linejoin: miter; stroke-miterlimit: 4; is-custom-font: none; font-file-url: none; fill: rgb(111,89,162); fill-rule: nonzero; opacity: 1;" points="32.95,-38.05 33.05,-20.04 11.15,-20.04 11.25,-31.77 0.15,-31.56 -11.05,-31.66 -11.05,-26.22 -16.65,-26.22 -16.65,-20.46 -10.85,-20.46 -10.75,-14.18 11.15,-14.18 11.05,-8.74 22.15,-8.63 22.15,-2.35 32.95,-2.35 33.05,25.8 27.05,25.8 26.95,32.19 21.85,32.19 21.85,37.42 0.15,37.32 0.15,43.6 -10.85,43.7 -10.85,37.32 -33.05,37.42 -33.05,32.29 -28.05,32.29 -27.95,26.12 -32.75,25.91 -32.75,14.5 -17.05,14.39 -17.05,20.47 -10.85,20.47 -10.95,25.91 10.95,26.12 11.05,20.78 16.05,20.67 15.95,14.6 11.15,14.5 11.05,9.06 -5.85,9.06 -5.95,2.88 -21.95,2.88 -21.85,-2.56 -32.95,-2.56 -33.05,-8.74 -27.95,-8.74 -28.05,-13.76 -33.05,-13.87 -33.05,-26.64 -28.05,-26.64 -27.95,-38.05 -17.05,-38.05 -17.05,-43.7 16.05,-43.59 16.05,-38.05 32.95,-38.05 "/>
</g>
		<g transform="matrix(1 0 0 1 243.695 32.36)" id="Calque_1-2">
<polygon style="stroke: none; stroke-width: 0; stroke-dasharray: none; stroke-linecap: butt; stroke-dashoffset: 0; stroke-linejoin: miter; stroke-miterlimit: 4; is-custom-font: none; font-file-url: none; fill: rgb(119,187,176); fill-rule: nonzero; opacity: 1;" points="-5.6,-2.72 -5.6,2.72 5.24,2.39 5.6,-2.62 -5.6,-2.72 "/>
</g>
</g>
</g>
</svg>