<?xml version="1.0" encoding="UTF-8"?>
<svg id="Calque_2" data-name="Calque 2" xmlns="http://www.w3.org/2000/svg" viewBox="0 0 597.33 215.94">
  <defs>
    <style>
      .cls-1 {
        fill: none;
      }

      .cls-1, .cls-2, .cls-3, .cls-4 {
        stroke-width: 0px;
      }

      .cls-2 {
        fill: #77bbb0;
      }

      .cls-3 {
        fill: #6f59a2;
      }

      .cls-4 {
        fill: #82368c;
      }
    </style>
  </defs>
  <g id="Calque_1-2" data-name="Calque 1">
    <g>
      <polygon class="cls-2" points="43.91 6.98 43.93 11.63 26.95 11.65 26.95 17.38 21.97 17.36 21.97 22.08 15.95 22.11 15.95 32.49 11 32.52 10.99 43.78 4.99 43.81 4.98 79.77 10.97 79.77 10.97 85.42 15.92 85.45 15.89 90.16 21.92 90.16 21.92 95.82 26.92 95.82 26.92 100.59 37.93 100.59 37.93 106.22 32.95 106.22 32.93 111.95 26.95 111.96 26.92 122.21 21.92 122.18 21.89 127.03 15.95 127.03 15.96 137.44 10.97 137.43 10.99 153.53 4.98 153.53 5.01 179.97 0 179.98 0 190.39 4.99 190.39 4.99 200.77 10.96 200.67 10.95 205.46 15.94 205.46 15.92 211.2 21.97 211.18 21.99 215.88 121.87 215.91 121.89 211.17 126.85 211.17 126.86 215.9 159.82 215.9 159.82 211.18 165.85 211.18 165.85 205.5 170.81 205.5 170.81 184.66 187.76 184.66 187.76 190.41 193.76 190.44 193.76 195.11 198.78 195.14 198.78 200.81 204.74 200.79 204.74 205.54 209.76 205.51 209.76 211.16 215.73 211.16 215.73 215.91 287.71 215.91 287.71 211.17 292.63 211.2 292.67 205.46 303.62 205.44 303.62 211.22 309.57 211.18 309.53 215.82 425.47 215.75 425.47 211.23 431.43 211.21 431.42 215.91 503.44 215.87 503.44 211.14 508.4 211.14 508.4 205.47 514.42 205.47 514.42 211.17 525.42 211.14 525.42 215.94 569.35 215.88 569.32 211.17 580.3 211.16 580.3 205.49 586.32 205.49 586.32 200.77 591.34 200.8 591.31 190.33 597.33 190.33 597.32 163.87 591.3 163.87 591.31 126.99 586.28 126.99 586.29 122.25 580.27 122.25 580.27 116.59 575.32 116.59 575.32 111.9 569.3 111.9 569.3 106.21 564.33 106.21 564.33 100.53 553.29 100.53 553.36 95.69 497.42 95.85 497.42 90.17 492.35 90.17 492.43 85.45 486.35 85.37 486.35 74.89 481.36 74.89 481.36 58.82 486.44 58.82 486.52 54.25 492.43 54.25 492.43 43.77 497.42 43.77 497.42 37.94 503.5 37.94 503.42 27.7 497.34 27.78 497.34 17.22 492.43 17.22 492.43 11.55 481.44 11.71 481.11 6.98 425.18 6.98 425.15 11.63 420.51 11.71 420.51 6.87 381.32 6.98 381.32 11.52 375.57 11.52 375.57 17.42 370.45 17.38 370.45 11.63 364.54 11.63 364.58 6.8 348.6 6.8 348.6 1.22 325.63 1.22 325.58 6.89 303.61 6.89 303.61 11.66 298.52 11.66 298.52 17.29 292.62 17.29 292.62 22.15 281.58 22.15 281.58 17.33 276.64 17.33 276.64 11.66 270.6 11.71 270.6 6.98 220.7 6.98 220.7 11.66 215.62 11.66 215.62 27.73 209.72 27.78 209.72 22.11 204.72 22.06 204.72 17.33 198.73 17.38 198.73 11.62 193.74 11.62 193.69 6.84 115.83 6.98 115.88 11.57 109.84 11.57 109.84 32.5 104.89 32.5 104.89 27.73 98.85 27.73 98.94 22.06 93.9 22.06 93.62 19.27 88.77 19.13 88.77 14.41 77.78 14.54 77.78 6.84 43.91 6.98"/>
      <g>
        <g>
          <polygon class="cls-3" points="20.12 76.97 20.12 53.99 26.76 53.99 26.76 44.15 32.53 44.15 32.08 32.25 44.94 32.25 44.49 26.51 75.52 26.51 75.52 32.25 88.37 31.84 87.93 25.69 93.25 26.1 93.69 34.71 101.22 36.35 101.67 58.51 107.43 59.33 108.31 76.56 100.34 76.15 101.22 105.28 95.91 105.28 95.46 116.76 88.81 118.4 88.81 128.25 83.5 128.25 83.5 133.17 73.15 133.92 73.3 139.33 68.43 140.15 68.43 145.89 63.99 146.3 63.99 155.74 54.69 156.15 55.13 166.81 106.1 167.63 106.1 200.45 15.24 201.27 14.8 195.53 20.12 195.94 20.12 172.15 25.88 172.15 25.88 156.56 32.97 156.97 32.08 145.48 39.17 145.48 39.17 139.33 44.05 139.33 44.49 127.84 51.14 127.84 51.14 122.51 56.02 122.51 56.46 116.56 63.99 116.56 63.11 105.07 70.2 105.07 69.76 94.81 77.29 93.99 75.96 59.12 70.64 59.12 68.87 54.61 63.99 54.61 63.55 60.76 53.36 60.35 52.91 64.87 44.94 65.69 45.38 84.15 25.44 84.15 25.88 76.76 20.12 76.97"/>
          <polygon class="cls-4" points="28.82 84.95 14.68 84.95 14.68 55.91 22.66 55.6 22.66 38.97 28.46 38.97 28.46 32.31 37.89 32.61 37.52 26.87 50.58 26.87 50.58 22.03 91.19 21.42 91.19 26.57 105.33 26.87 105.33 38.66 91.92 38.36 91.55 32.31 56.38 32.31 56.38 39.57 44.41 38.66 44.41 50.46 36.8 50.46 36.8 61.96 28.82 61.96 28.82 84.95"/>
          <polygon class="cls-4" points="73.81 56.78 73.47 89.9 66.62 90.19 66.96 99.98 61.13 99.98 60.45 106.89 52.56 106.89 52.91 111.78 47.42 111.78 47.42 123.59 40.57 123.02 40.91 129.64 35.08 129.35 35.08 140.87 27.54 140.29 27.54 150.66 20.34 150.66 20.68 168.52 14.51 168.52 14.51 201.49 21.37 201.2 21.37 195.73 27.2 195.73 26.85 173.56 34.4 173.56 34.05 157.43 40.22 157.43 39.88 145.91 47.76 145.91 47.42 139.86 53.25 139.29 53.25 128.34 61.13 128.63 60.45 122.58 66.96 122.87 66.27 117.98 74.16 118.26 73.47 107.03 79.64 106.74 79.3 95.51 87.87 95.8 87.53 61.82 80.67 61.24 80.33 56.06 73.81 56.78"/>
          <polygon class="cls-4" points="53.71 154.64 53.13 169.06 106.87 169.06 105.12 153.95 53.71 154.64"/>
        </g>
        <g>
          <polygon class="cls-3" points="177.13 68.48 194.1 68.48 194.62 96.12 187.93 96.12 188.45 103.94 177.47 102.9 177.64 105.51 177.81 108.11 121.91 108.11 121.23 30.23 194.62 28.84 195.65 44.49 187.42 45.01 187.93 57.53 176.86 59.27 177.13 68.48"/>
          <polygon class="cls-2" points="140.61 41.88 141.12 58.57 169.93 59.09 168.9 43.45 140.61 41.88"/>
          <polygon class="cls-2" points="143.18 79.95 142.66 98.21 170.44 97.68 170.44 74.74 143.18 79.95"/>
          <polygon class="cls-4" points="160.44 39.79 159.12 48.05 152.44 48.65 151.84 56.36 140.36 56.36 141.12 60.13 170.44 59.53 169.41 42.61 160.44 39.79"/>
          <polygon class="cls-4" points="141.19 92.31 142.47 99.09 171.27 99.09 171.27 74.05 166.13 73.53 167.07 83.27 155.84 85.01 154.65 92.31 141.19 92.31"/>
          <polygon class="cls-4" points="195.77 32.14 195.36 26.57 191.29 28.82 190.83 21 117.99 22.2 117.58 107.32 127.86 108.51 128.69 30.95 195.77 32.14"/>
          <polygon class="cls-4" points="187.06 57.02 175.86 55.49 176.31 69.71 194.68 70.22 195.13 64.12 188.85 64.12 187.06 57.02"/>
        </g>
        <g>
          <polygon class="cls-3" points="234.75 28.95 234.75 40.8 229.67 40.8 229.67 52.66 223.74 52.66 223.74 69.18 216.97 69.6 217.82 87.38 211.89 87.81 212.31 98.82 206.38 99.66 205.54 109.83 227.98 110.67 228.28 92.51 261.86 92.47 262.7 98.39 269.9 98.39 269.9 109.83 293.19 109.83 292.77 94.58 288.53 94.58 287.69 76.37 282.61 75.95 281.76 64.09 274.05 63.7 274.95 46.76 269.81 46.46 269.51 29.52 234.75 28.95"/>
          <polygon class="cls-2" points="243.07 48.55 243.07 66.02 251.89 66.02 251.47 48.73 243.07 48.55"/>
          <polygon class="cls-4" points="245.54 49.08 245.19 43.79 252.24 43.43 251.89 37.79 256.48 38.14 257.18 54.02 263.18 55.08 263.89 80.84 239.89 80.84 239.54 66.37 252.24 65.67 251.18 48.38 245.54 49.08"/>
          <polygon class="cls-4" points="269.97 30.72 269.44 17.69 229.74 17.69 229.74 34.88 223.39 34.36 223.92 46.87 217.57 46.87 217.57 64.59 211.75 64.06 212.28 82.82 204.87 82.82 204.87 92.72 200.63 93.24 200.1 109.4 212.28 109.92 211.75 97.93 217.57 97.93 217.57 87.51 222.33 86.99 222.86 69.8 228.16 69.28 229.74 53.12 233.45 53.12 234.51 41.66 240.86 41.14 240.86 29.67 269.97 30.72"/>
          <polygon class="cls-4" points="260.31 89.1 260.01 109.7 271.3 110.13 270.95 98.56 265.3 98.56 264.59 90.85 260.31 89.1"/>
        </g>
        <g>
          <polygon class="cls-3" points="373.97 48.92 373.38 43.11 379.57 42.8 378.98 31.81 368.07 31.18 367.48 26.47 350.38 26.16 350.08 19.25 333.27 19.25 333.57 25.53 315.87 25.53 316.17 31.18 311.16 31.5 311.45 43.74 304.67 43.74 304.67 85.49 310.86 85.49 310.57 103.7 316.93 103.67 317.05 109.67 362.47 109.67 362.17 104.96 367.19 104.64 366.89 97.74 374.56 98.36 373.97 92.09 378.39 92.71 378.98 81.1 362.47 80.78 362.47 86.75 356.57 86.44 356.57 93.66 328.85 93.34 327.97 67.6 322.36 67.6 322.36 55.67 326.79 55.36 327.97 43.43 334.16 43.11 334.16 37.46 344.18 37.15 344.18 42.8 349.49 43.43 349.79 38.4 357.45 38.4 358.04 43.43 362.17 43.43 362.47 49.08 373.97 48.92"/>
          <polygon class="cls-4" points="372.14 32.41 372.14 21.04 361.19 20.74 361.19 16.55 312.03 15.65 312.31 22.23 306.41 21.04 306.41 27.92 301.35 27.02 301.07 33.01 295.45 33.01 295.73 83.72 301.63 84.32 301.91 95.69 306.69 96.29 307.25 102.57 312.31 102.57 311.74 85.52 306.13 85.22 306.13 43.93 312.59 44.23 312.31 31.96 316.24 32.26 316.52 26.87 334.22 27.17 333.94 20.29 349.67 20.59 349.39 26.57 366.52 27.47 366.8 33.16 372.14 32.41"/>
          <polygon class="cls-4" points="326.13 86.09 345.05 86.54 344.75 79.62 351.32 79.62 351.32 73.53 374 74.08 374 78.79 378.77 79.34 379.07 86.54 362.96 85.99 363.25 90.14 356.99 90.42 357.29 96.24 328.04 96.51 326.13 86.09"/>
          <polygon class="cls-4" points="352.85 36.78 353.1 48.74 363.59 49.09 363.59 42.76 358.6 42.76 358.1 36.07 352.85 36.78"/>
        </g>
        <g>
          <g>
            <rect class="cls-1" x="359.94" width="131.89" height="139.33"/>
            <polygon class="cls-3" points="398.2 24.36 398.47 108.46 418.75 108.46 418.75 85.1 423.56 84.48 423.29 78.56 429.16 78.56 428.09 66.72 435.03 66.41 435.03 72.95 438.77 72.64 438.5 84.79 444.64 84.79 444.91 91.02 448.64 91.33 449.18 107.22 479.87 107.84 479.87 103.17 475.79 104.95 475.33 90.71 469.46 91.33 469.99 79.49 464.39 79.18 464.39 72.33 458.52 72.64 459.32 60.18 455.31 60.8 455.05 54.26 448.91 54.26 448.91 48.34 454.78 48.34 455.05 42.42 459.85 42.11 459.85 36.19 464.92 36.19 464.92 30.59 470.53 29.96 469.99 24.67 444.64 24.98 444.64 30.27 439.84 30.59 440.37 36.5 435.03 36.82 435.03 43.36 429.69 42.73 429.43 54.88 418.75 54.88 418.48 25.29 398.2 24.36"/>
            <polygon class="cls-4" points="420.29 27.59 419.65 17.05 394 17.05 393.35 108.2 399.35 108.2 400.15 26.61 420.29 27.59"/>
            <polygon class="cls-4" points="418.35 40.91 418.48 58.36 429.65 58.36 429.39 46.23 435.96 46.23 436.09 40.64 441.61 40.64 441.35 34.37 447.79 34.23 447.4 28.78 482.22 28.92 482.35 17.34 441.61 17.06 441.61 22.24 435.96 22.38 436.09 29.06 429.39 29.06 429.52 34.92 423.48 34.64 423.48 41.32 418.35 40.91"/>
          </g>
          <path class="cls-4" d="M427.64,64.93v13.57l7.91-.24v11.87h5.54v11.87l7.39.48v5.09h6.07l-.26-17.2-6.07-.48-.26-6.06h-6.6v-12.11h-6.33v-6.54l-7.39-.24Z"/>
        </g>
        <g>
          <polygon class="cls-3" points="127.66 121.8 127.44 202.09 150.07 202.09 150.07 173.86 172.25 174.09 172.25 168.08 183.68 167.85 183.02 161.9 190.08 162.53 190.08 150.96 195.79 150.96 195.11 132.91 190.08 132.68 189.62 126.89 178.88 127.13 178.65 122.27 127.66 121.8"/>
          <polygon class="cls-4" points="187.6 129.48 187.86 124.41 182.1 124.41 182.1 118.35 170.95 118.45 170.95 113.48 117.39 113.48 117.29 201.02 128.24 201.02 128.14 124.41 177.01 124.51 177.01 129.68 187.6 129.48"/>
          <rect class="cls-2" x="153.31" y="141.13" width="11.17" height="5.96"/>
          <polygon class="cls-4" points="153.15 152.67 148.1 152.67 148.26 158.14 169.44 158.31 169.44 153.17 174.65 153.17 174.65 141.25 169.6 141.25 169.44 136.11 163.74 136.44 163.9 147.04 153.09 146.92 153.15 152.67"/>
        </g>
        <g>
          <polygon class="cls-3" points="239.27 126.99 215.75 126.99 215.31 203.8 239.71 204.19 239.27 126.99"/>
          <polygon class="cls-4" points="239.51 126.99 217.51 126.99 217.91 204.19 206.31 204.19 206.31 114.99 239.51 114.99 239.51 126.99"/>
        </g>
        <g>
          <polyline class="cls-4" points="250 114.58 250 127.23 255 126.98 255.25 131.98 261 131.98 261 142.73 266 142.98 266.25 148.98 271.75 148.98 272.25 171.23 265.75 170.98 265.75 177.48 261 176.98 261 187.98 254.75 187.98 254.75 192.98 250 192.98 249.85 204.13 260.93 204.13 260.93 198.9 266 198.75 266.16 192.75 272 192.9 272 181.98 276.77 181.98 276.77 176.9 282.93 176.9 283.08 166.13 288 166.13 287.85 159.82 282.93 159.98 282.77 154.75 277.08 154.9 277.08 143.21 271.85 143.21 271.77 137.98 265.93 137.98 266.08 126.98 287.93 126.98 287.77 120.67 282.85 120.67 282.7 114.52"/>
          <polygon class="cls-4" points="292.25 176.62 291.92 186.95 298.25 187.28 298.25 191.95 303.25 192.28 302.92 202.95 314.59 202.95 314.59 192.28 309.59 192.28 308.92 187.28 304.25 186.95 303.59 175.95 292.25 176.62"/>
          <polygon class="cls-4" points="291.7 138.73 291.7 150.73 298.61 150.73 298.61 156.92 303.44 157.28 303.79 143.46 309.32 143.46 309.66 132.9 314.15 132.9 314.15 127.08 337.3 127.08 338.18 119.23 343.52 119.8 343.86 113.62 302.75 114.35 302.75 125.99 298.26 126.35 298.26 133.27 298.61 137.63 291.7 138.73"/>
          <polygon class="cls-3" points="265.13 126.76 264.8 137.76 270.67 138.09 270.99 143.42 275.88 143.09 275.88 155.09 281.09 155.09 281.09 160.42 286.96 160.42 286.96 166.09 281.75 166.09 282.07 177.42 275.88 177.42 275.88 181.42 270.99 181.42 270.99 192.76 265.13 192.76 265.13 198.42 260.89 198.42 260.89 204.42 282.4 204.42 281.75 199.09 286.96 199.09 286.96 193.42 292.5 193.42 293.15 187.76 293.04 177.2 303.25 177.2 303.25 188.31 309.12 188.31 309.12 193.65 314.55 193.65 314.33 204.09 341.7 203.87 341.7 198.98 335.83 198.98 335.83 188.31 331.05 188.09 331.05 181.87 324.97 181.87 324.97 170.76 319.98 170.76 320.19 166.31 314.55 166.09 314.55 159.87 319.98 159.87 320.41 148.98 325.19 148.98 325.19 138.31 330.84 138.31 331.05 132.09 335.83 131.87 335.72 126.98 314.44 126.53 314.22 132.31 309.88 132.31 309.66 142.76 303.36 142.76 303.36 155.2 299.01 155.2 298.8 149.2 292.72 149.2 292.72 127.2 265.13 126.76"/>
        </g>
        <g>
          <polygon class="cls-4" points="421.02 115.41 421.02 127.01 361.16 127.01 361.16 203.81 350.21 203.41 350.57 115.81 421.02 115.41"/>
          <polygon class="cls-3" points="420.93 125.92 359.12 125.46 358.88 204.21 421.96 204.21 421.72 192.78 379.75 192.27 379.99 170.42 416.57 170.17 416.8 159.25 380.22 158.99 380.46 136.89 421.49 136.89 420.93 125.92"/>
          <polygon class="cls-4" points="379.75 149.46 379.99 160.71 416.57 160.46 416.57 149.46 379.75 149.46"/>
          <polygon class="cls-4" points="379.05 182.21 379.32 193.46 421.49 193.21 421.49 182.21 379.05 182.21"/>
        </g>
        <g>
          <polygon class="cls-3" points="435.32 126.63 458.53 126.55 458.91 188.47 499.92 188.47 500 205.44 435 204.94 435.32 126.63"/>
          <polygon class="cls-4" points="458.49 127.8 437.48 127.8 437.48 205.55 431.77 205.59 431.92 116.36 458.86 116.36 458.49 127.8"/>
          <polygon class="cls-4" points="499.89 189.22 459.27 189.03 459.27 182.64 499.66 182.45 499.89 189.22"/>
        </g>
        <g>
          <polygon class="cls-4" points="573.39 131.44 573.12 126.96 569 126.95 568.47 119.47 562.98 119.46 562.99 114.37 520.16 114.58 520.15 119.36 515.49 119.35 515.47 126.53 509.16 126.52 509.41 137.58 503.92 137.57 503.88 155.81 509.65 155.83 509.36 161.21 520.48 161.26 520.65 155.85 515.85 156.01 515.87 143.28 520.52 143.29 520.7 131.78 530.95 131.97 530.96 126.39 562.51 126.46 562.5 131.87 573.39 131.44"/>
          <polygon class="cls-4" points="547.6 137.75 547.6 142.72 531.22 142.59 531.22 148.87 537.1 148.87 537.1 155.28 558.97 155.41 558.97 160.64 569.97 160.51 569.97 166.79 581.22 166.79 581.22 160.25 574.97 160.25 575.1 155.41 570.1 155.28 570.1 149.13 558.97 148.87 559.1 137.22 547.6 137.75"/>
          <polygon class="cls-4" points="533.44 183.3 533.44 172.27 505.44 172.13 505.31 195.16 511.44 195.3 511.31 201.44 522.37 201.58 522.64 195.44 517.97 195.3 517.57 184.27 533.44 183.3"/>
          <polygon class="cls-4" points="539.04 177.79 539.18 183.93 545.04 183.93 545.04 189.23 567.04 189.37 566.91 184.35 571.71 184.07 571.98 177.93 567.18 177.79 566.91 172.63 561.04 172.35 561.18 178.49 539.04 177.79"/>
          <polygon class="cls-3" points="580.76 131.22 580.86 149.23 558.96 149.23 559.06 137.5 547.96 137.71 536.76 137.61 536.76 143.05 531.16 143.05 531.16 148.81 536.96 148.81 537.06 155.09 558.96 155.09 558.86 160.53 569.96 160.64 569.96 166.92 580.76 166.92 580.86 195.07 574.86 195.07 574.76 201.46 569.66 201.46 569.66 206.69 547.96 206.59 547.96 212.87 536.96 212.97 536.96 206.59 514.76 206.69 514.76 201.56 519.76 201.56 519.86 195.39 515.06 195.18 515.06 183.77 530.76 183.66 530.76 189.74 536.96 189.74 536.86 195.18 558.76 195.39 558.86 190.05 563.86 189.94 563.76 183.87 558.96 183.77 558.86 178.33 541.96 178.33 541.86 172.15 525.86 172.15 525.96 166.71 514.86 166.71 514.76 160.53 519.86 160.53 519.76 155.51 514.76 155.4 514.76 142.63 519.76 142.63 519.86 131.22 530.76 131.22 530.76 125.57 563.86 125.68 563.86 131.22 580.76 131.22"/>
          <polygon class="cls-2" points="536.76 137.61 536.76 143.05 547.6 142.72 547.96 137.71 536.76 137.61"/>
        </g>
      </g>
    </g>
  </g>
</svg>